REM DIRINDEX 1\2,1\3,1\4,1\5
REM DIRNAME "folder01","folder02","folder03","folder04","folder05"
TITLE ""
FILE "P1Q_j_1642-1655.mp3" MP3
  TRACK 01 AUDIO
    TITLE "3:cjc173_0126"
    INDEX 01 00:00:00
  TRACK 02 AUDIO
    TITLE "0:"
    INDEX 01 00:01:39
  TRACK 03 AUDIO
    TITLE "4:cjc173_0127"
    INDEX 01 00:01:59
  TRACK 04 AUDIO
    TITLE "0:"
    INDEX 01 00:05:60
  TRACK 05 AUDIO
    TITLE "5:cjc173_0128"
    INDEX 01 00:06:05
  TRACK 06 AUDIO
    TITLE "0:"
    INDEX 01 00:11:45
  TRACK 07 AUDIO
    TITLE "3:cjc173_0129"
    INDEX 01 00:12:17
  TRACK 08 AUDIO
    TITLE "0:"
    INDEX 01 00:13:58
  TRACK 09 AUDIO
    TITLE "4:cjc173_0130"
    INDEX 01 00:14:07
  TRACK 10 AUDIO
    TITLE "0:"
    INDEX 01 00:20:25
  TRACK 11 AUDIO
    TITLE "5:cjc173_0131"
    INDEX 01 00:20:44
  TRACK 12 AUDIO
    TITLE "0:"
    INDEX 01 00:24:48
  TRACK 13 AUDIO
    TITLE "3:cjc173_0132"
    INDEX 01 00:25:18
  TRACK 14 AUDIO
    TITLE "0:"
    INDEX 01 00:26:45
  TRACK 15 AUDIO
    TITLE "4:cjc173_0133"
    INDEX 01 00:26:66
  TRACK 16 AUDIO
    TITLE "0:"
    INDEX 01 00:29:35
  TRACK 17 AUDIO
    TITLE "5:cjc173_0134"
    INDEX 01 00:29:55
  TRACK 18 AUDIO
    TITLE "0:"
    INDEX 01 00:34:60
  TRACK 19 AUDIO
    TITLE "3:cjc173_0135"
    INDEX 01 00:35:28
  TRACK 20 AUDIO
    TITLE "0:"
    INDEX 01 00:36:49
  TRACK 21 AUDIO
    TITLE "4:cjc173_0136"
    INDEX 01 00:36:69
  TRACK 22 AUDIO
    TITLE "0:"
    INDEX 01 00:39:53
  TRACK 23 AUDIO
    TITLE "5:cjc173_0137"
    INDEX 01 00:40:00
  TRACK 24 AUDIO
    TITLE "0:"
    INDEX 01 00:44:31
  TRACK 25 AUDIO
    TITLE "3:cjc173_0138"
    INDEX 01 00:45:01
  TRACK 26 AUDIO
    TITLE "0:"
    INDEX 01 00:46:30
  TRACK 27 AUDIO
    TITLE "4:cjc173_0139"
    INDEX 01 00:46:48
  TRACK 28 AUDIO
    TITLE "0:"
    INDEX 01 00:51:06
  TRACK 29 AUDIO
    TITLE "5:cjc173_0140"
    INDEX 01 00:51:27
  TRACK 30 AUDIO
    TITLE "0:"
    INDEX 01 00:55:41
  TRACK 31 AUDIO
    TITLE "3:cjc173_0141"
    INDEX 01 00:56:11
  TRACK 32 AUDIO
    TITLE "0:"
    INDEX 01 00:57:36
  TRACK 33 AUDIO
    TITLE "4:cjc173_0142"
    INDEX 01 00:57:55
  TRACK 34 AUDIO
    TITLE "0:"
    INDEX 01 01:03:09
  TRACK 35 AUDIO
    TITLE "5:cjc173_0143"
    INDEX 01 01:03:28
  TRACK 36 AUDIO
    TITLE "0:"
    INDEX 01 01:07:54
  TRACK 37 AUDIO
    TITLE "3:cjc173_0144"
    INDEX 01 01:08:24
  TRACK 38 AUDIO
    TITLE "0:"
    INDEX 01 01:09:41
  TRACK 39 AUDIO
    TITLE "4:cjc173_0145"
    INDEX 01 01:09:66
  TRACK 40 AUDIO
    TITLE "0:"
    INDEX 01 01:16:68
  TRACK 41 AUDIO
    TITLE "5:cjc173_0146"
    INDEX 01 01:17:13
  TRACK 42 AUDIO
    TITLE "0:"
    INDEX 01 01:21:40
  TRACK 43 AUDIO
    TITLE "3:cjc173_0147"
    INDEX 01 01:22:10
  TRACK 44 AUDIO
    TITLE "0:"
    INDEX 01 01:23:57
  TRACK 45 AUDIO
    TITLE "4:cjc173_0148"
    INDEX 01 01:24:01
  TRACK 46 AUDIO
    TITLE "0:"
    INDEX 01 01:28:17
  TRACK 47 AUDIO
    TITLE "5:cjc173_0149"
    INDEX 01 01:28:36
  TRACK 48 AUDIO
    TITLE "0:"
    INDEX 01 01:32:20
  TRACK 49 AUDIO
    TITLE "3:cjc173_0150"
    INDEX 01 01:32:65
  TRACK 50 AUDIO
    TITLE "0:"
    INDEX 01 01:34:25
  TRACK 51 AUDIO
    TITLE "4:cjc173_0151"
    INDEX 01 01:34:45
  TRACK 52 AUDIO
    TITLE "0:"
    INDEX 01 01:38:64
  TRACK 53 AUDIO
    TITLE "5:cjc173_0152"
    INDEX 01 01:39:09
  TRACK 54 AUDIO
    TITLE "0:"
    INDEX 01 01:44:25
  TRACK 55 AUDIO
    TITLE "3:cjc173_0153"
    INDEX 01 01:44:71
  TRACK 56 AUDIO
    TITLE "0:"
    INDEX 01 01:46:36
  TRACK 57 AUDIO
    TITLE "4:cjc173_0154"
    INDEX 01 01:46:58
  TRACK 58 AUDIO
    TITLE "0:"
    INDEX 01 01:52:35
  TRACK 59 AUDIO
    TITLE "5:cjc173_0155"
    INDEX 01 01:52:54
  TRACK 60 AUDIO
    TITLE "0:"
    INDEX 01 01:56:72
  TRACK 61 AUDIO
    TITLE "3:cjc173_0156"
    INDEX 01 01:57:46
  TRACK 62 AUDIO
    TITLE "0:"
    INDEX 01 01:59:23
  TRACK 63 AUDIO
    TITLE "4:cjc173_0157"
    INDEX 01 01:59:43
  TRACK 64 AUDIO
    TITLE "0:"
    INDEX 01 02:02:37
  TRACK 65 AUDIO
    TITLE "5:cjc173_0158"
    INDEX 01 02:02:59
  TRACK 66 AUDIO
    TITLE "0:"
    INDEX 01 02:07:42
  TRACK 67 AUDIO
    TITLE "3:cjc173_0159"
    INDEX 01 02:08:12
  TRACK 68 AUDIO
    TITLE "0:"
    INDEX 01 02:09:61
  TRACK 69 AUDIO
    TITLE "4:cjc173_0160"
    INDEX 01 02:10:09
  TRACK 70 AUDIO
    TITLE "0:"
    INDEX 01 02:12:00
  TRACK 71 AUDIO
    TITLE "5:cjc173_0161"
    INDEX 01 02:12:20
  TRACK 72 AUDIO
    TITLE "0:"
    INDEX 01 02:16:06
  TRACK 73 AUDIO
    TITLE "3:cjc173_0162"
    INDEX 01 02:16:51
  TRACK 74 AUDIO
    TITLE "0:"
    INDEX 01 02:18:15
  TRACK 75 AUDIO
    TITLE "4:cjc173_0163"
    INDEX 01 02:18:34
  TRACK 76 AUDIO
    TITLE "0:"
    INDEX 01 02:20:41
  TRACK 77 AUDIO
    TITLE "5:cjc173_0164"
    INDEX 01 02:20:61
  TRACK 78 AUDIO
    TITLE "0:"
    INDEX 01 02:25:03
  TRACK 79 AUDIO
    TITLE "3:cjc173_0165"
    INDEX 01 02:25:48
  TRACK 80 AUDIO
    TITLE "0:"
    INDEX 01 02:26:71
  TRACK 81 AUDIO
    TITLE "4:cjc173_0166"
    INDEX 01 02:27:17
  TRACK 82 AUDIO
    TITLE "0:"
    INDEX 01 02:30:45
  TRACK 83 AUDIO
    TITLE "5:cjc173_0167"
    INDEX 01 02:30:63
  TRACK 84 AUDIO
    TITLE "0:"
    INDEX 01 02:34:29
